<?xml version="1.0" standalone="no"?><!DOCTYPE svg PUBLIC "-//W3C//DTD SVG 1.1//EN" "http://www.w3.org/Graphics/SVG/1.1/DTD/svg11.dtd"><svg t="1631175607460" class="icon" viewBox="0 0 1024 1024" version="1.1" xmlns="http://www.w3.org/2000/svg" p-id="6767" width="32" height="32" xmlns:xlink="http://www.w3.org/1999/xlink"><defs><style type="text/css"></style></defs><path d="M512 977.454545a462.289455 462.289455 0 0 1-329.122909-136.331636C1.442909 659.642182 1.442909 364.311273 182.877091 182.877091 270.754909 94.952727 387.630545 46.545455 512 46.545455s241.198545 48.407273 329.169455 136.331636c181.387636 181.434182 181.387636 476.765091 0 658.245818A462.568727 462.568727 0 0 1 512 977.454545z m0-861.090909a393.029818 393.029818 0 0 0-279.784727 115.898182c-154.205091 154.251636-154.205091 405.271273 0 559.522909A393.309091 393.309091 0 0 0 512 907.636364a393.309091 393.309091 0 0 0 279.784727-115.851637c154.205091-154.251636 154.205091-405.271273 0-559.522909A393.076364 393.076364 0 0 0 512 116.363636z m176.872727 572.509091a34.909091 34.909091 0 0 0 0-49.384727l-304.407272-304.407273A34.909091 34.909091 0 1 0 335.080727 384.465455l304.407273 304.407272a34.816 34.816 0 0 0 49.384727 0z m-304.407272 0l304.407272-304.407272a34.909091 34.909091 0 1 0-49.384727-49.384728l-304.407273 304.407273A34.909091 34.909091 0 1 0 384.465455 688.872727z" p-id="6768"></path></svg>